<svg width="380" height="51" fill="none" xmlns="http://www.w3.org/2000/svg"><path d="M163.908 19.112c-.98 0-1.867-.215-2.66-.644a4.87 4.87 0 01-1.848-1.792c-.448-.765-.672-1.624-.672-2.576s.224-1.806.672-2.562a4.715 4.715 0 011.862-1.792c.793-.439 1.68-.658 2.66-.658.765 0 1.465.13 2.1.392.635.252 1.176.63 1.624 1.134l-.91.882c-.737-.775-1.657-1.162-2.758-1.162-.728 0-1.386.163-1.974.49-.588.327-1.05.78-1.386 1.358-.327.57-.49 1.209-.49 1.918 0 .71.163 1.353.49 1.932a3.62 3.62 0 001.386 1.344c.588.327 1.246.49 1.974.49 1.092 0 2.011-.392 2.758-1.176l.91.882a4.343 4.343 0 01-1.638 1.148 5.467 5.467 0 01-2.1.392zm10.768-6.356h-2.716V19h-1.344v-6.244H167.9V11.58h6.776v1.176zm8.037-1.176l-3.598 8.162c-.317.756-.691 1.288-1.12 1.596-.42.308-.929.462-1.526.462-.364 0-.719-.06-1.064-.182a2.109 2.109 0 01-.84-.504l.574-1.008c.383.364.826.546 1.33.546.327 0 .597-.089.812-.266.224-.168.425-.462.602-.882l.238-.518-3.276-7.406h1.4l2.59 5.936 2.562-5.936h1.316zm8.526 6.244v2.898h-1.26V19h-6.202v1.722h-1.274v-2.898h.392c.476-.028.802-.364.98-1.008.177-.644.298-1.554.364-2.73l.112-2.506h5.754v6.244h1.134zm-5.768-3.64c-.038.933-.117 1.708-.238 2.324-.112.607-.322 1.045-.63 1.316h4.158v-5.068h-3.22l-.07 1.428zm7.519-2.604h1.344v5.404l4.549-5.404h1.219V19h-1.345v-5.404L194.222 19h-1.232v-7.42zm15.67 0V19h-1.204v-2.352h-2.31L203.522 19h-1.442l1.806-2.534c-.56-.168-.989-.443-1.288-.826-.298-.392-.448-.877-.448-1.456 0-.85.29-1.493.868-1.932.579-.448 1.377-.672 2.394-.672h3.248zm-5.138 2.646c0 .495.154.863.462 1.106.318.233.789.35 1.414.35h2.058v-2.926h-2.002c-1.288 0-1.932.49-1.932 1.47zm19.066 3.598v2.898h-1.26V19h-6.202v1.722h-1.274v-2.898h.392c.476-.028.803-.364.98-1.008.178-.644.299-1.554.364-2.73l.112-2.506h5.754v6.244h1.134zm-5.768-3.64c-.037.933-.116 1.708-.238 2.324-.112.607-.322 1.045-.63 1.316h4.158v-5.068h-3.22l-.07 1.428zm7.519-2.604h1.344v5.404l4.55-5.404h1.218V19h-1.344v-5.404L225.571 19h-1.232v-7.42zm13.616 3.556c.494.13.877.34 1.148.63.27.29.406.649.406 1.078 0 .439-.15.83-.448 1.176-.299.336-.714.602-1.246.798-.523.187-1.111.28-1.764.28-.551 0-1.092-.07-1.624-.21-.523-.15-.99-.36-1.4-.63l.406-1.022c.354.224.76.401 1.218.532a5.38 5.38 0 001.386.182c.634 0 1.138-.107 1.512-.322.382-.224.574-.523.574-.896 0-.345-.154-.611-.462-.798-.299-.187-.724-.28-1.274-.28h-1.358v-.966h1.26c.504 0 .9-.089 1.19-.266.289-.177.434-.42.434-.728 0-.336-.173-.597-.518-.784-.336-.187-.794-.28-1.372-.28-.738 0-1.517.191-2.338.574l-.364-1.036a6.221 6.221 0 012.842-.686c.597 0 1.134.084 1.61.252.476.168.849.406 1.12.714.27.308.406.658.406 1.05 0 .364-.122.69-.364.98-.243.29-.57.509-.98.658zm6.243-3.626c1.027 0 1.811.252 2.352.756.551.504.826 1.255.826 2.254V19h-1.274v-.98a2.162 2.162 0 01-.966.798c-.411.177-.901.266-1.47.266-.831 0-1.498-.2-2.002-.602-.495-.401-.742-.929-.742-1.582s.238-1.176.714-1.568c.476-.401 1.232-.602 2.268-.602h2.128v-.266c0-.579-.168-1.022-.504-1.33-.336-.308-.831-.462-1.484-.462-.439 0-.868.075-1.288.224-.42.14-.775.331-1.064.574l-.56-1.008c.383-.308.84-.541 1.372-.7a5.595 5.595 0 011.694-.252zm-.308 6.538c.513 0 .957-.112 1.33-.336.373-.233.644-.56.812-.98v-1.036h-2.072c-1.139 0-1.708.383-1.708 1.148 0 .373.145.667.434.882.289.215.691.322 1.204.322zm5.906-6.468h1.344v5.404l4.55-5.404h1.218V19h-1.344v-5.404L251.028 19h-1.232v-7.42zm3.472-.966c-.691 0-1.227-.163-1.61-.49-.383-.336-.579-.817-.588-1.442h.91c.009.345.126.625.35.84.233.205.541.308.924.308s.691-.103.924-.308c.233-.215.355-.495.364-.84h.938c-.009.625-.21 1.106-.602 1.442-.392.327-.929.49-1.61.49zm6.249.966h1.344v3.15h4.228v-3.15h1.344V19h-1.344v-3.108h-4.228V19h-1.344v-7.42zm16.235 3.752c0 .103-.009.238-.028.406h-6.02c.084.653.369 1.18.854 1.582.495.392 1.106.588 1.834.588.887 0 1.601-.299 2.142-.896l.742.868a3.24 3.24 0 01-1.26.896 4.31 4.31 0 01-1.666.308c-.784 0-1.479-.159-2.086-.476a3.537 3.537 0 01-1.414-1.358c-.327-.579-.49-1.232-.49-1.96 0-.719.159-1.367.476-1.946a3.475 3.475 0 011.33-1.344 3.784 3.784 0 011.918-.49c.709 0 1.339.163 1.89.49.56.317.994.765 1.302 1.344.317.579.476 1.241.476 1.988zm-3.668-2.688c-.644 0-1.185.196-1.624.588-.429.392-.681.905-.756 1.54h4.76c-.075-.625-.331-1.134-.77-1.526-.429-.401-.966-.602-1.61-.602zm9.687-1.134c.719 0 1.363.159 1.932.476.569.317 1.013.76 1.33 1.33.327.57.49 1.227.49 1.974 0 .747-.163 1.41-.49 1.988a3.376 3.376 0 01-1.33 1.33c-.569.317-1.213.476-1.932.476a3.486 3.486 0 01-1.47-.308 3.055 3.055 0 01-1.12-.896v3.836h-1.344V11.58h1.288v1.176c.299-.41.677-.719 1.134-.924a3.511 3.511 0 011.512-.322zm-.112 6.398c.476 0 .901-.107 1.274-.322.383-.224.681-.532.896-.924.224-.401.336-.859.336-1.372 0-.513-.112-.966-.336-1.358a2.251 2.251 0 00-.896-.924 2.508 2.508 0 00-1.274-.322c-.467 0-.891.112-1.274.336a2.4 2.4 0 00-.896.91c-.215.392-.322.845-.322 1.358 0 .513.107.97.322 1.372.215.392.513.7.896.924.383.215.807.322 1.274.322zm9.051 1.176c-.756 0-1.433-.163-2.03-.49a3.62 3.62 0 01-1.386-1.344c-.336-.579-.504-1.232-.504-1.96s.168-1.377.504-1.946A3.49 3.49 0 01288.68 12c.597-.327 1.274-.49 2.03-.49.672 0 1.269.135 1.792.406.532.27.942.663 1.232 1.176l-1.022.658a2.29 2.29 0 00-.868-.798 2.478 2.478 0 00-1.148-.266c-.486 0-.924.107-1.316.322a2.341 2.341 0 00-.91.924c-.215.392-.322.845-.322 1.358 0 .523.107.985.322 1.386.224.392.527.695.91.91.392.215.83.322 1.316.322.42 0 .802-.089 1.148-.266a2.29 2.29 0 00.868-.798l1.022.644c-.29.513-.7.91-1.232 1.19-.523.27-1.12.406-1.792.406zm7.648-3.22h-1.54V19h-1.344v-7.42h1.344v3.136h1.568l2.408-3.136h1.442l-2.814 3.57 3.01 3.85h-1.582l-2.492-3.136zm8.415 3.22c-.737 0-1.4-.163-1.988-.49a3.62 3.62 0 01-1.386-1.344c-.327-.579-.49-1.232-.49-1.96s.163-1.377.49-1.946A3.49 3.49 0 01304.785 12c.588-.327 1.251-.49 1.988-.49.737 0 1.395.163 1.974.49a3.398 3.398 0 011.372 1.344c.336.57.504 1.218.504 1.946s-.168 1.381-.504 1.96a3.521 3.521 0 01-1.372 1.344c-.579.327-1.237.49-1.974.49zm0-1.176c.476 0 .901-.107 1.274-.322.383-.224.681-.532.896-.924a2.86 2.86 0 00.322-1.372c0-.513-.107-.966-.322-1.358a2.251 2.251 0 00-.896-.924 2.508 2.508 0 00-1.274-.322c-.476 0-.905.107-1.288.322a2.375 2.375 0 00-.896.924c-.215.392-.322.845-.322 1.358 0 .513.107.97.322 1.372.224.392.523.7.896.924.383.215.812.322 1.288.322zm11.251-5.152h-4.116V19h-1.344v-7.42h5.46v1.176zm4.226 6.328c-.738 0-1.4-.163-1.988-.49a3.62 3.62 0 01-1.386-1.344c-.327-.579-.49-1.232-.49-1.96s.163-1.377.49-1.946A3.49 3.49 0 01320.262 12c.588-.327 1.25-.49 1.988-.49.737 0 1.395.163 1.974.49a3.398 3.398 0 011.372 1.344c.336.57.504 1.218.504 1.946s-.168 1.381-.504 1.96a3.521 3.521 0 01-1.372 1.344c-.579.327-1.237.49-1.974.49zm0-1.176c.476 0 .9-.107 1.274-.322.382-.224.681-.532.896-.924.214-.401.322-.859.322-1.372 0-.513-.108-.966-.322-1.358a2.257 2.257 0 00-.896-.924 2.51 2.51 0 00-1.274-.322c-.476 0-.906.107-1.288.322a2.368 2.368 0 00-.896.924c-.215.392-.322.845-.322 1.358 0 .513.107.97.322 1.372.224.392.522.7.896.924.382.215.812.322 1.288.322zM164.832 32.756h-2.716V39h-1.344v-6.244h-2.716V31.58h6.776v1.176zm7.752 2.576c0 .103-.009.238-.028.406h-6.02c.084.653.369 1.18.854 1.582.495.392 1.106.588 1.834.588.887 0 1.601-.299 2.142-.896l.742.868a3.24 3.24 0 01-1.26.896 4.307 4.307 0 01-1.666.308c-.784 0-1.479-.159-2.086-.476a3.543 3.543 0 01-1.414-1.358c-.326-.579-.49-1.232-.49-1.96 0-.719.159-1.367.476-1.946a3.475 3.475 0 011.33-1.344 3.787 3.787 0 011.918-.49c.71 0 1.34.163 1.89.49.56.317.994.765 1.302 1.344.318.579.476 1.241.476 1.988zm-3.668-2.688c-.644 0-1.185.196-1.624.588-.429.392-.681.905-.756 1.54h4.76c-.074-.625-.331-1.134-.77-1.526-.429-.401-.966-.602-1.61-.602zm8.637 3.22h-1.54V39h-1.344v-7.42h1.344v3.136h1.568l2.408-3.136h1.442l-2.814 3.57 3.01 3.85h-1.582l-2.492-3.136zm8.471 3.22c-.756 0-1.432-.163-2.03-.49a3.62 3.62 0 01-1.386-1.344c-.336-.579-.504-1.232-.504-1.96s.168-1.377.504-1.946A3.49 3.49 0 01183.994 32c.598-.327 1.274-.49 2.03-.49.672 0 1.27.135 1.792.406.532.27.943.663 1.232 1.176l-1.022.658a2.276 2.276 0 00-.868-.798 2.475 2.475 0 00-1.148-.266c-.485 0-.924.107-1.316.322a2.348 2.348 0 00-.91.924c-.214.392-.322.845-.322 1.358 0 .523.108.985.322 1.386.224.392.528.695.91.91.392.215.831.322 1.316.322.42 0 .803-.089 1.148-.266.346-.177.635-.443.868-.798l1.022.644c-.289.513-.7.91-1.232 1.19-.522.27-1.12.406-1.792.406zm10.199-6.328h-2.716V39h-1.344v-6.244h-2.716V31.58h6.776v1.176zm1.374-1.176h1.344v5.404l4.55-5.404h1.218V39h-1.344v-5.404L198.829 39h-1.232v-7.42zm16.091 0V39h-1.344v-6.244h-3.192l-.084 1.652c-.047.999-.136 1.834-.266 2.506-.131.663-.346 1.195-.644 1.596-.299.401-.714.602-1.246.602-.243 0-.518-.042-.826-.126l.084-1.134c.121.028.233.042.336.042a.91.91 0 00.84-.49c.186-.327.308-.714.364-1.162.056-.448.107-1.087.154-1.918l.126-2.744h5.698zm8.548 0V39h-1.204v-2.352h-2.31L217.098 39h-1.442l1.806-2.534c-.56-.168-.989-.443-1.288-.826-.298-.392-.448-.877-.448-1.456 0-.85.29-1.493.868-1.932.579-.448 1.377-.672 2.394-.672h3.248zm-5.138 2.646c0 .495.154.863.462 1.106.318.233.789.35 1.414.35h2.058v-2.926h-2.002c-1.288 0-1.932.49-1.932 1.47zm16.574.924c.962.243 1.442.845 1.442 1.806 0 .653-.247 1.157-.742 1.512-.485.355-1.213.532-2.184.532h-3.57v-7.42h3.444c.878 0 1.564.168 2.058.504.495.327.742.793.742 1.4 0 .392-.107.733-.322 1.022-.205.28-.494.495-.868.644zm-3.738-.378h2.016c.514 0 .901-.093 1.162-.28.271-.187.406-.457.406-.812 0-.71-.522-1.064-1.568-1.064h-2.016v2.156zm2.156 3.192c.56 0 .98-.089 1.26-.266.28-.177.42-.453.42-.826 0-.383-.13-.667-.392-.854-.252-.187-.653-.28-1.204-.28h-2.24v2.226h2.156zm13.494 1.148c-.98 0-1.867-.215-2.66-.644a4.87 4.87 0 01-1.848-1.792c-.448-.765-.672-1.624-.672-2.576s.224-1.806.672-2.562a4.709 4.709 0 011.862-1.792c.793-.439 1.68-.658 2.66-.658.765 0 1.465.13 2.1.392.634.252 1.176.63 1.624 1.134l-.91.882c-.738-.775-1.657-1.162-2.758-1.162-.728 0-1.386.163-1.974.49-.588.327-1.05.78-1.386 1.358-.327.57-.49 1.209-.49 1.918 0 .71.163 1.353.49 1.932a3.62 3.62 0 001.386 1.344c.588.327 1.246.49 1.974.49 1.092 0 2.011-.392 2.758-1.176l.91.882a4.343 4.343 0 01-1.638 1.148 5.467 5.467 0 01-2.1.392zm7.993-7.602c1.027 0 1.811.252 2.352.756.551.504.826 1.255.826 2.254V39h-1.274v-.98a2.162 2.162 0 01-.966.798c-.411.177-.901.266-1.47.266-.831 0-1.498-.2-2.002-.602-.495-.401-.742-.929-.742-1.582s.238-1.176.714-1.568c.476-.401 1.232-.602 2.268-.602h2.128v-.266c0-.579-.168-1.022-.504-1.33-.336-.308-.831-.462-1.484-.462-.439 0-.868.075-1.288.224-.42.14-.775.331-1.064.574l-.56-1.008c.383-.308.84-.541 1.372-.7a5.595 5.595 0 011.694-.252zm-.308 6.538c.513 0 .957-.112 1.33-.336.373-.233.644-.56.812-.98v-1.036h-2.072c-1.139 0-1.708.383-1.708 1.148 0 .373.145.667.434.882.289.215.691.322 1.204.322zm5.906-6.468h1.344v3.15h4.228v-3.15h1.344V39h-1.344v-3.108h-4.228V39h-1.344v-7.42zm12.413 4.284h-1.54V39h-1.344v-7.42h1.344v3.136h1.568l2.408-3.136h1.442l-2.814 3.57 3.01 3.85h-1.582l-2.492-3.136zm10.89-3.108h-2.716V39h-1.344v-6.244h-2.716V31.58h6.776v1.176zm13.801-3.556V39h-1.372v-8.582h-5.684V39h-1.386v-9.8h8.442zm9.538 6.132c0 .103-.01.238-.028.406h-6.02c.084.653.368 1.18.854 1.582.494.392 1.106.588 1.834.588.886 0 1.6-.299 2.142-.896l.742.868a3.24 3.24 0 01-1.26.896 4.31 4.31 0 01-1.666.308c-.784 0-1.48-.159-2.086-.476a3.537 3.537 0 01-1.414-1.358c-.327-.579-.49-1.232-.49-1.96 0-.719.158-1.367.476-1.946a3.469 3.469 0 011.33-1.344 3.781 3.781 0 011.918-.49c.709 0 1.339.163 1.89.49.56.317.994.765 1.302 1.344.317.579.476 1.241.476 1.988zm-3.668-2.688c-.644 0-1.186.196-1.624.588-.43.392-.682.905-.756 1.54h4.76c-.075-.625-.332-1.134-.77-1.526-.43-.401-.966-.602-1.61-.602zm10.968.112h-2.716V39h-1.344v-6.244h-2.716V31.58h6.776v1.176zm7.752 2.576c0 .103-.009.238-.028.406h-6.02c.084.653.369 1.18.854 1.582.495.392 1.106.588 1.834.588.887 0 1.601-.299 2.142-.896l.742.868a3.24 3.24 0 01-1.26.896 4.307 4.307 0 01-1.666.308c-.784 0-1.479-.159-2.086-.476a3.543 3.543 0 01-1.414-1.358c-.326-.579-.49-1.232-.49-1.96 0-.719.159-1.367.476-1.946a3.475 3.475 0 011.33-1.344 3.787 3.787 0 011.918-.49c.71 0 1.34.163 1.89.49.56.317.994.765 1.302 1.344.318.579.476 1.241.476 1.988zm-3.668-2.688c-.644 0-1.185.196-1.624.588-.429.392-.681.905-.756 1.54h4.76c-.074-.625-.331-1.134-.77-1.526-.429-.401-.966-.602-1.61-.602zm9.687-1.134c.719 0 1.363.159 1.932.476a3.37 3.37 0 011.33 1.33c.327.57.49 1.227.49 1.974 0 .747-.163 1.41-.49 1.988a3.37 3.37 0 01-1.33 1.33c-.569.317-1.213.476-1.932.476a3.486 3.486 0 01-1.47-.308 3.063 3.063 0 01-1.12-.896v3.836h-1.344V31.58h1.288v1.176c.299-.41.677-.719 1.134-.924a3.518 3.518 0 011.512-.322zm-.112 6.398c.476 0 .901-.107 1.274-.322.383-.224.682-.532.896-.924.224-.401.336-.859.336-1.372 0-.513-.112-.966-.336-1.358a2.245 2.245 0 00-.896-.924 2.508 2.508 0 00-1.274-.322c-.466 0-.891.112-1.274.336a2.4 2.4 0 00-.896.91c-.214.392-.322.845-.322 1.358 0 .513.108.97.322 1.372.215.392.514.7.896.924.383.215.808.322 1.274.322zm9.597-6.076c.691 0 1.307.154 1.848.462.541.308.961.737 1.26 1.288.308.541.462 1.162.462 1.862 0 .719-.163 1.358-.49 1.918-.317.55-.77.98-1.358 1.288-.579.308-1.241.462-1.988.462-1.26 0-2.235-.43-2.926-1.288-.681-.868-1.022-2.086-1.022-3.654 0-1.521.313-2.711.938-3.57.625-.868 1.582-1.442 2.87-1.722l3.388-.756.196 1.232-3.122.672c-.971.215-1.694.579-2.17 1.092-.476.513-.747 1.25-.812 2.212a3.263 3.263 0 011.232-1.106 3.626 3.626 0 011.694-.392zm-.238 6.16c.476 0 .896-.107 1.26-.322.373-.215.663-.509.868-.882.205-.383.308-.817.308-1.302 0-.737-.224-1.33-.672-1.778-.448-.448-1.036-.672-1.764-.672s-1.321.224-1.778.672c-.448.448-.672 1.04-.672 1.778 0 .485.103.92.308 1.302.215.373.509.667.882.882a2.48 2.48 0 001.26.322zm12.144-6.412l-3.598 8.162c-.317.756-.69 1.288-1.12 1.596-.42.308-.928.462-1.526.462-.364 0-.718-.06-1.064-.182a2.109 2.109 0 01-.84-.504l.574-1.008c.383.364.826.546 1.33.546.327 0 .598-.089.812-.266.224-.168.425-.462.602-.882l.238-.518-3.276-7.406h1.4l2.59 5.936 2.562-5.936h1.316zm5.311-.07c.718 0 1.362.159 1.932.476.569.317 1.012.76 1.33 1.33.326.57.49 1.227.49 1.974 0 .747-.164 1.41-.49 1.988a3.382 3.382 0 01-1.33 1.33c-.57.317-1.214.476-1.932.476a3.486 3.486 0 01-1.47-.308 3.055 3.055 0 01-1.12-.896v3.836h-1.344V31.58h1.288v1.176c.298-.41.676-.719 1.134-.924a3.511 3.511 0 011.512-.322zm-.112 6.398c.476 0 .9-.107 1.274-.322.382-.224.681-.532.896-.924.224-.401.336-.859.336-1.372 0-.513-.112-.966-.336-1.358a2.257 2.257 0 00-.896-.924 2.51 2.51 0 00-1.274-.322c-.467 0-.892.112-1.274.336a2.394 2.394 0 00-.896.91c-.215.392-.322.845-.322 1.358 0 .513.107.97.322 1.372.214.392.513.7.896.924.382.215.807.322 1.274.322zm11.276-5.152h-4.116V39h-1.344v-7.42h5.46v1.176zm7.754 2.576c0 .103-.009.238-.028.406h-6.02c.084.653.369 1.18.854 1.582.495.392 1.106.588 1.834.588.887 0 1.601-.299 2.142-.896l.742.868a3.24 3.24 0 01-1.26.896 4.31 4.31 0 01-1.666.308c-.784 0-1.479-.159-2.086-.476a3.537 3.537 0 01-1.414-1.358c-.327-.579-.49-1.232-.49-1.96 0-.719.159-1.367.476-1.946a3.475 3.475 0 011.33-1.344 3.784 3.784 0 011.918-.49c.709 0 1.339.163 1.89.49.56.317.994.765 1.302 1.344.317.579.476 1.241.476 1.988zm-3.668-2.688c-.644 0-1.185.196-1.624.588-.429.392-.681.905-.756 1.54h4.76c-.075-.625-.331-1.134-.77-1.526-.429-.401-.966-.602-1.61-.602z" fill="#695A59"/><g filter="url(#filter0_d)"><path d="M19.74 29.98h-9.02l-2.2 7.48 2.86 1.1V39h-6.6v-.44l2.86-1.1 8.58-29.92h.66l9.24 30.36 2.64.66V39h-9.24v-.44l2.64-.66-2.42-7.92zm-8.8-.836h8.536l-4.4-14.564-4.136 14.564zM29.84 39v-.44l2.64-.66V9.3l-2.64-.66V8.2h7.92c1.378 0 2.566.161 3.563.484 1.027.293 1.878.719 2.552 1.276a4.882 4.882 0 011.496 1.892c.352.704.528 1.467.528 2.288 0 .645-.102 1.217-.308 1.716a4.172 4.172 0 01-.748 1.32 5.605 5.605 0 01-1.056.968 6.774 6.774 0 01-1.188.66c-.968.44-2.068.719-3.3.836 1.819.176 3.432.63 4.84 1.364a9.769 9.769 0 011.76 1.188c.587.44 1.1.997 1.54 1.672.47.645.836 1.408 1.1 2.288.294.85.44 1.833.44 2.948 0 1.379-.264 2.67-.792 3.872A9.32 9.32 0 0145.9 36.14c-.968.88-2.141 1.584-3.52 2.112-1.378.499-2.918.748-4.62.748h-7.92zm6.38-18.92v18.04h1.54c.997 0 1.92-.19 2.771-.572a5.913 5.913 0 002.2-1.716c.646-.763 1.144-1.701 1.496-2.816.382-1.115.572-2.42.572-3.916s-.19-2.801-.572-3.916c-.352-1.115-.85-2.053-1.496-2.816a5.913 5.913 0 00-2.2-1.716 6.699 6.699 0 00-2.772-.572h-1.54zm0-.88h1.54c1.32-.03 2.375-.455 3.167-1.276.822-.85 1.232-2.112 1.232-3.784 0-1.672-.41-2.933-1.232-3.784-.792-.85-1.848-1.276-3.168-1.276h-1.54V19.2zm36.294 4.4c0 2.699-.308 5.06-.924 7.084-.586 1.995-1.378 3.667-2.376 5.016-.968 1.32-2.068 2.317-3.3 2.992-1.232.645-2.478.968-3.74.968-1.261 0-2.508-.323-3.74-.968-1.232-.675-2.346-1.672-3.344-2.992-.968-1.35-1.76-3.021-2.376-5.016-.586-2.024-.88-4.385-.88-7.084s.294-5.045.88-7.04c.616-2.024 1.408-3.696 2.376-5.016.998-1.35 2.112-2.347 3.344-2.992 1.232-.675 2.479-1.012 3.74-1.012 1.262 0 2.508.337 3.74 1.012 1.232.645 2.332 1.643 3.3 2.992.998 1.32 1.79 2.992 2.376 5.016.616 1.995.924 4.341.924 7.04zm-4.18 0c0-3.021-.19-5.515-.572-7.48-.352-1.995-.836-3.579-1.452-4.752-.586-1.173-1.246-1.995-1.98-2.464-.733-.47-1.452-.704-2.156-.704-.704 0-1.422.235-2.156.704-.733.47-1.408 1.29-2.024 2.464-.586 1.173-1.07 2.757-1.452 4.752-.352 1.965-.528 4.459-.528 7.48 0 3.021.176 5.53.528 7.524.382 1.965.866 3.535 1.452 4.708.616 1.173 1.29 1.995 2.024 2.464.734.47 1.452.704 2.156.704.704 0 1.423-.235 2.156-.704.734-.47 1.394-1.29 1.98-2.464.616-1.173 1.1-2.743 1.452-4.708.382-1.995.572-4.503.572-7.524zm23.532 7.04c0 1.379-.22 2.625-.66 3.74-.411 1.115-1.012 2.068-1.804 2.86-.763.763-1.702 1.35-2.816 1.76-1.115.44-2.362.66-3.74.66a7.915 7.915 0 01-3.124-.616 9.007 9.007 0 01-2.508-1.628 7.921 7.921 0 01-1.672-2.288 6.383 6.383 0 01-.616-2.728c0-1.672.337-2.919 1.012-3.74.704-.821 1.54-1.335 2.508-1.54l3.08 2.64c-2.934.44-4.4 1.98-4.4 4.62 0 .557.132 1.1.396 1.628a4.33 4.33 0 001.144 1.408c.498.41 1.1.748 1.804 1.012.704.235 1.496.352 2.376.352.704 0 1.378-.147 2.024-.44.645-.323 1.202-.807 1.672-1.452.498-.675.88-1.525 1.144-2.552.293-1.027.44-2.259.44-3.696V9.3l-2.64-.66V8.2h9.02v.44l-2.64.66v21.34zm25.31-.44c0 3.315-.689 5.72-2.068 7.216-1.349 1.496-3.3 2.244-5.852 2.244-2.992 0-5.324-.821-6.996-2.464-1.643-1.672-2.464-4.004-2.464-6.996V9.3l-2.64-.66V8.2h9.02v.44l-2.64.66v20.9c0 2.963.587 5.133 1.76 6.512 1.173 1.379 2.64 2.068 4.4 2.068.997 0 1.892-.161 2.684-.484a5.223 5.223 0 002.068-1.584c.587-.704 1.041-1.584 1.364-2.64.323-1.085.484-2.376.484-3.872V9.74l-2.86-1.1V8.2h6.6v.44l-2.86 1.1V30.2zm13.874-22c1.877 0 3.505.205 4.884.616 1.378.41 2.522.968 3.432 1.672.909.704 1.584 1.525 2.024 2.464.44.91.66 1.892.66 2.948 0 .85-.132 1.613-.396 2.288a6.447 6.447 0 01-.968 1.76 5.66 5.66 0 01-1.364 1.276c-.528.352-1.056.645-1.584.88-1.262.557-2.684.91-4.268 1.056 1.29.147 2.464.455 3.52.924.909.41 1.76 1.012 2.552 1.804s1.261 1.863 1.408 3.212l.88 7.7c.058.557.19.953.396 1.188.205.235.44.352.704.352a.852.852 0 00.44-.132c.176-.117.337-.25.484-.396.146-.147.278-.337.396-.572l.44.44a3.142 3.142 0 01-.748 1.012c-.264.235-.616.455-1.056.66-.411.205-.91.308-1.496.308-.998 0-1.819-.279-2.464-.836-.616-.587-.968-1.261-1.056-2.024l-.88-7.7c-.118-.997-.308-1.833-.572-2.508-.264-.704-.631-1.276-1.1-1.716-.44-.44-1.012-.763-1.716-.968-.704-.205-1.555-.308-2.552-.308h-1.76v14.3l2.64.66V39h-9.02v-.44l2.64-.66V9.3l-2.64-.66V8.2h8.14zm6.82 7.7c0-2.2-.587-3.887-1.76-5.06-1.174-1.173-2.86-1.76-5.06-1.76h-1.76v13.64h1.76c2.2 0 3.886-.587 5.06-1.76 1.173-1.173 1.76-2.86 1.76-5.06z" fill="#695A59"/></g><defs><filter id="filter0_d" x=".78" y="7.54" width="147.91" height="40.12" filterUnits="userSpaceOnUse" color-interpolation-filters="sRGB"><feFlood flood-opacity="0" result="BackgroundImageFix"/><feColorMatrix in="SourceAlpha" values="0 0 0 0 0 0 0 0 0 0 0 0 0 0 0 0 0 0 127 0"/><feOffset dy="4"/><feGaussianBlur stdDeviation="2"/><feColorMatrix values="0 0 0 0 0 0 0 0 0 0 0 0 0 0 0 0 0 0 0.25 0"/><feBlend in2="BackgroundImageFix" result="effect1_dropShadow"/><feBlend in="SourceGraphic" in2="effect1_dropShadow" result="shape"/></filter></defs></svg>