<svg width="149" height="41" viewBox="0 0 149 41" fill="none" xmlns="http://www.w3.org/2000/svg">
<g filter="url(#filter0_d)">
<path d="M19.74 22.98H10.72L8.52 30.46L11.38 31.56V32H4.78V31.56L7.64 30.46L16.22 0.539999H16.88L26.12 30.9L28.76 31.56V32H19.52V31.56L22.16 30.9L19.74 22.98ZM10.94 22.144H19.476L15.076 7.58L10.94 22.144ZM29.8394 32V31.56L32.4794 30.9V2.3L29.8394 1.64V1.2H37.7594C39.138 1.2 40.326 1.36133 41.3234 1.684C42.35 1.97733 43.2007 2.40267 43.8754 2.96C44.55 3.488 45.0487 4.11867 45.3714 4.852C45.7234 5.556 45.8994 6.31867 45.8994 7.14C45.8994 7.78533 45.7967 8.35733 45.5914 8.856C45.4154 9.35467 45.166 9.79467 44.8434 10.176C44.55 10.528 44.198 10.8507 43.7874 11.144C43.406 11.408 43.01 11.628 42.5994 11.804C41.6314 12.244 40.5314 12.5227 39.2994 12.64C41.118 12.816 42.7314 13.2707 44.1394 14.004C44.7554 14.3267 45.342 14.7227 45.8994 15.192C46.486 15.632 46.9994 16.1893 47.4394 16.864C47.9087 17.5093 48.2754 18.272 48.5394 19.152C48.8327 20.0027 48.9794 20.9853 48.9794 22.1C48.9794 23.4787 48.7154 24.7693 48.1874 25.972C47.6594 27.1747 46.8967 28.2307 45.8994 29.14C44.9314 30.02 43.758 30.724 42.3794 31.252C41.0007 31.7507 39.4607 32 37.7594 32H29.8394ZM36.2194 13.08V31.12H37.7594C38.7567 31.12 39.6807 30.9293 40.5314 30.548C41.382 30.1667 42.1154 29.5947 42.7314 28.832C43.3767 28.0693 43.8754 27.1307 44.2274 26.016C44.6087 24.9013 44.7994 23.596 44.7994 22.1C44.7994 20.604 44.6087 19.2987 44.2274 18.184C43.8754 17.0693 43.3767 16.1307 42.7314 15.368C42.1154 14.6053 41.382 14.0333 40.5314 13.652C39.6807 13.2707 38.7567 13.08 37.7594 13.08H36.2194ZM36.2194 12.2H37.7594C39.0794 12.1707 40.1354 11.7453 40.9274 10.924C41.7487 10.0733 42.1594 8.812 42.1594 7.14C42.1594 5.468 41.7487 4.20667 40.9274 3.356C40.1354 2.50533 39.0794 2.08 37.7594 2.08H36.2194V12.2ZM72.5142 16.6C72.5142 19.2987 72.2062 21.66 71.5902 23.684C71.0036 25.6787 70.2116 27.3507 69.2142 28.7C68.2462 30.02 67.1462 31.0173 65.9142 31.692C64.6822 32.3373 63.4356 32.66 62.1742 32.66C60.9129 32.66 59.6662 32.3373 58.4342 31.692C57.2022 31.0173 56.0876 30.02 55.0902 28.7C54.1222 27.3507 53.3302 25.6787 52.7142 23.684C52.1276 21.66 51.8342 19.2987 51.8342 16.6C51.8342 13.9013 52.1276 11.5547 52.7142 9.56C53.3302 7.536 54.1222 5.864 55.0902 4.544C56.0876 3.19467 57.2022 2.19733 58.4342 1.552C59.6662 0.877332 60.9129 0.539999 62.1742 0.539999C63.4356 0.539999 64.6822 0.877332 65.9142 1.552C67.1462 2.19733 68.2462 3.19467 69.2142 4.544C70.2116 5.864 71.0036 7.536 71.5902 9.56C72.2062 11.5547 72.5142 13.9013 72.5142 16.6ZM68.3342 16.6C68.3342 13.5787 68.1436 11.0853 67.7622 9.12C67.4102 7.12533 66.9262 5.54133 66.3102 4.368C65.7236 3.19467 65.0636 2.37333 64.3302 1.904C63.5969 1.43467 62.8782 1.2 62.1742 1.2C61.4702 1.2 60.7516 1.43467 60.0182 1.904C59.2849 2.37333 58.6102 3.19467 57.9942 4.368C57.4076 5.54133 56.9236 7.12533 56.5422 9.12C56.1902 11.0853 56.0142 13.5787 56.0142 16.6C56.0142 19.6213 56.1902 22.1293 56.5422 24.124C56.9236 26.0893 57.4076 27.6587 57.9942 28.832C58.6102 30.0053 59.2849 30.8267 60.0182 31.296C60.7516 31.7653 61.4702 32 62.1742 32C62.8782 32 63.5969 31.7653 64.3302 31.296C65.0636 30.8267 65.7236 30.0053 66.3102 28.832C66.9262 27.6587 67.4102 26.0893 67.7622 24.124C68.1436 22.1293 68.3342 19.6213 68.3342 16.6ZM91.8656 23.64C91.8656 25.0187 91.6456 26.2653 91.2056 27.38C90.795 28.4947 90.1936 29.448 89.4016 30.24C88.639 31.0027 87.7003 31.5893 86.5856 32C85.471 32.44 84.2243 32.66 82.8456 32.66C81.731 32.66 80.6896 32.4547 79.7216 32.044C78.783 31.6333 77.947 31.0907 77.2136 30.416C76.5096 29.7413 75.9523 28.9787 75.5416 28.128C75.131 27.248 74.9256 26.3387 74.9256 25.4C74.9256 23.728 75.263 22.4813 75.9376 21.66C76.6416 20.8387 77.4776 20.3253 78.4456 20.12L81.5256 22.76C78.5923 23.2 77.1256 24.74 77.1256 27.38C77.1256 27.9373 77.2576 28.48 77.5216 29.008C77.7856 29.536 78.167 30.0053 78.6656 30.416C79.1643 30.8267 79.7656 31.164 80.4696 31.428C81.1736 31.6627 81.9656 31.78 82.8456 31.78C83.5496 31.78 84.2243 31.6333 84.8696 31.34C85.515 31.0173 86.0723 30.5333 86.5416 29.888C87.0403 29.2133 87.4216 28.3627 87.6856 27.336C87.979 26.3093 88.1256 25.0773 88.1256 23.64V2.3L85.4856 1.64V1.2H94.5056V1.64L91.8656 2.3V23.64ZM117.176 23.2C117.176 26.5147 116.487 28.92 115.108 30.416C113.759 31.912 111.808 32.66 109.256 32.66C106.264 32.66 103.932 31.8387 102.26 30.196C100.617 28.524 99.7959 26.192 99.7959 23.2V2.3L97.1559 1.64V1.2H106.176V1.64L103.536 2.3V23.2C103.536 26.1627 104.123 28.3333 105.296 29.712C106.469 31.0907 107.936 31.78 109.696 31.78C110.693 31.78 111.588 31.6187 112.38 31.296C113.201 30.944 113.891 30.416 114.448 29.712C115.035 29.008 115.489 28.128 115.812 27.072C116.135 25.9867 116.296 24.696 116.296 23.2V2.74L113.436 1.64V1.2H120.036V1.64L117.176 2.74V23.2ZM131.05 1.2C132.927 1.2 134.555 1.40533 135.934 1.816C137.312 2.22666 138.456 2.784 139.366 3.488C140.275 4.192 140.95 5.01333 141.39 5.952C141.83 6.86133 142.05 7.844 142.05 8.9C142.05 9.75067 141.918 10.5133 141.654 11.188C141.419 11.8333 141.096 12.42 140.686 12.948C140.304 13.4467 139.85 13.872 139.322 14.224C138.794 14.576 138.266 14.8693 137.738 15.104C136.476 15.6613 135.054 16.0133 133.47 16.16C134.76 16.3067 135.934 16.6147 136.99 17.084C137.899 17.4947 138.75 18.096 139.542 18.888C140.334 19.68 140.803 20.7507 140.95 22.1L141.83 29.8C141.888 30.3573 142.02 30.7533 142.226 30.988C142.431 31.2227 142.666 31.34 142.93 31.34C143.076 31.34 143.223 31.296 143.37 31.208C143.546 31.0907 143.707 30.9587 143.854 30.812C144 30.6653 144.132 30.4747 144.25 30.24L144.69 30.68C144.514 31.0613 144.264 31.3987 143.942 31.692C143.678 31.9267 143.326 32.1467 142.886 32.352C142.475 32.5573 141.976 32.66 141.39 32.66C140.392 32.66 139.571 32.3813 138.926 31.824C138.31 31.2373 137.958 30.5627 137.87 29.8L136.99 22.1C136.872 21.1027 136.682 20.2667 136.418 19.592C136.154 18.888 135.787 18.316 135.318 17.876C134.878 17.436 134.306 17.1133 133.602 16.908C132.898 16.7027 132.047 16.6 131.05 16.6H129.29V30.9L131.93 31.56V32H122.91V31.56L125.55 30.9V2.3L122.91 1.64V1.2H131.05ZM137.87 8.9C137.87 6.7 137.283 5.01333 136.11 3.84C134.936 2.66667 133.25 2.08 131.05 2.08H129.29V15.72H131.05C133.25 15.72 134.936 15.1333 136.11 13.96C137.283 12.7867 137.87 11.1 137.87 8.9Z" fill="#695A59"/>
</g>
<defs>
<filter id="filter0_d" x="0.780029" y="0.540039" width="147.91" height="40.12" filterUnits="userSpaceOnUse" color-interpolation-filters="sRGB">
<feFlood flood-opacity="0" result="BackgroundImageFix"/>
<feColorMatrix in="SourceAlpha" type="matrix" values="0 0 0 0 0 0 0 0 0 0 0 0 0 0 0 0 0 0 127 0"/>
<feOffset dy="4"/>
<feGaussianBlur stdDeviation="2"/>
<feColorMatrix type="matrix" values="0 0 0 0 0 0 0 0 0 0 0 0 0 0 0 0 0 0 0.25 0"/>
<feBlend mode="normal" in2="BackgroundImageFix" result="effect1_dropShadow"/>
<feBlend mode="normal" in="SourceGraphic" in2="effect1_dropShadow" result="shape"/>
</filter>
</defs>
</svg>
